<svg width="20" height="20" viewBox="0 0 20 20" fill="none" xmlns="http://www.w3.org/2000/svg">
<path d="M3.3335 9.99984C3.3335 6.32484 6.32516 3.33317 10.0002 3.33317C13.6752 3.33317 16.6668 6.32484 16.6668 9.99984C16.6668 13.6748 13.6752 16.6665 10.0002 16.6665C6.32516 16.6665 3.3335 13.6748 3.3335 9.99984ZM1.66683 9.99984C1.66683 14.5998 5.40016 18.3332 10.0002 18.3332C14.6002 18.3332 18.3335 14.5998 18.3335 9.99984C18.3335 5.39984 14.6002 1.6665 10.0002 1.6665C5.40016 1.6665 1.66683 5.39984 1.66683 9.99984ZM10.0002 9.1665L7.50016 9.1665C7.04183 9.1665 6.66683 9.5415 6.66683 9.99984C6.66683 10.4582 7.04183 10.8332 7.50016 10.8332L10.0002 10.8332L10.0002 12.3248C10.0002 12.6998 10.4502 12.8832 10.7085 12.6165L13.0335 10.2915C13.2002 10.1248 13.2002 9.8665 13.0335 9.69984L10.7085 7.37484C10.4502 7.1165 10.0002 7.29984 10.0002 7.67484L10.0002 9.1665Z" fill="white"/>
</svg>
