<svg width="20" height="20" viewBox="0 0 20 20" fill="none" xmlns="http://www.w3.org/2000/svg">
<g clip-path="url(#clip0_298_8320)">
<path d="M9.99175 1.6665C5.39175 1.6665 1.66675 5.39984 1.66675 9.99984C1.66675 14.5998 5.39175 18.3332 9.99175 18.3332C14.6001 18.3332 18.3334 14.5998 18.3334 9.99984C18.3334 5.39984 14.6001 1.6665 9.99175 1.6665ZM10.0001 16.6665C6.31675 16.6665 3.33341 13.6832 3.33341 9.99984C3.33341 6.3165 6.31675 3.33317 10.0001 3.33317C13.6834 3.33317 16.6667 6.3165 16.6667 9.99984C16.6667 13.6832 13.6834 16.6665 10.0001 16.6665ZM9.81675 5.83317H9.76675C9.43341 5.83317 9.16675 6.09984 9.16675 6.43317V10.3665C9.16675 10.6582 9.31675 10.9332 9.57508 11.0832L13.0334 13.1582C13.3167 13.3248 13.6834 13.2415 13.8501 12.9582C14.0251 12.6748 13.9334 12.2998 13.6417 12.1332L10.4167 10.2165V6.43317C10.4167 6.09984 10.1501 5.83317 9.81675 5.83317Z" fill="#1A1A1A" fill-opacity="0.5"/>
</g>
<defs>
<clipPath id="clip0_298_8320">
<rect width="20" height="20" fill="white"/>
</clipPath>
</defs>
</svg>
