<svg width="20" height="20" viewBox="0 0 20 20" fill="none" xmlns="http://www.w3.org/2000/svg">
<circle cx="10" cy="10" r="10" fill="#1A1A1A" fill-opacity="0.03"/>
<circle cx="10" cy="10" r="9.5" stroke="#1A1A1A" stroke-opacity="0.1"/>
<path d="M11.9497 5H6.91533C6.4119 5 6 5.40909 6 5.90909V11.8182C6 12.0682 6.20595 12.2727 6.45767 12.2727C6.70938 12.2727 6.91533 12.0682 6.91533 11.8182V6.36364C6.91533 6.11364 7.12128 5.90909 7.373 5.90909H11.9497C12.2014 5.90909 12.4073 5.70455 12.4073 5.45455C12.4073 5.20455 12.2014 5 11.9497 5ZM13.7803 6.81818H8.746C8.24256 6.81818 7.83066 7.22727 7.83066 7.72727V14.0909C7.83066 14.5909 8.24256 15 8.746 15H13.7803C14.2838 15 14.6957 14.5909 14.6957 14.0909V7.72727C14.6957 7.22727 14.2838 6.81818 13.7803 6.81818ZM13.3227 14.0909H9.20366C8.95195 14.0909 8.746 13.8864 8.746 13.6364V8.18182C8.746 7.93182 8.95195 7.72727 9.20366 7.72727H13.3227C13.5744 7.72727 13.7803 7.93182 13.7803 8.18182V13.6364C13.7803 13.8864 13.5744 14.0909 13.3227 14.0909Z" fill="#1A1A1A" fill-opacity="0.5"/>
</svg>
