<svg width="36" height="36" viewBox="0 0 36 36" fill="none" xmlns="http://www.w3.org/2000/svg">
<path d="M17 0.577351C17.6188 0.220085 18.3812 0.220085 19 0.57735L32.5885 8.42265C33.2073 8.77991 33.5885 9.44017 33.5885 10.1547V25.8453C33.5885 26.5598 33.2073 27.2201 32.5885 27.5774L19 35.4226C18.3812 35.7799 17.6188 35.7799 17 35.4226L3.41154 27.5774C2.79274 27.2201 2.41154 26.5598 2.41154 25.8453V10.1547C2.41154 9.44017 2.79274 8.77992 3.41154 8.42265L17 0.577351Z" fill="#1A1A1A"/>
<path d="M14.1812 14.08V22H12.2852L9.51319 17.344L8.82919 16.048H8.81719L8.86519 17.416V22H7.37719V14.08H9.26119L12.0332 18.724L12.7172 20.032H12.7412L12.6932 18.664V14.08H14.1812ZM22.1763 15.412H17.9043V17.428H21.2763V18.76H17.9043V22H16.2483V14.08H22.1763V15.412ZM29.8599 14.08V15.412H27.2079V22H25.5519V15.412H22.8879V14.08H29.8599Z" fill="white"/>
</svg>
