<svg width="10" height="10" viewBox="0 0 10 10" fill="none" xmlns="http://www.w3.org/2000/svg">
<g clip-path="url(#clip0_1022_22095)">
<path d="M4.11625 3.13292C4.60417 2.70583 5.39583 2.70583 5.88375 3.13292C6.37208 3.56 6.37208 4.2525 5.88375 4.67958C5.79917 4.75417 5.70458 4.81542 5.60458 4.86375C5.29417 5.01417 5.00042 5.28 5.00042 5.625V5.9375M8.75 5C8.75 5.49246 8.653 5.98009 8.46455 6.43506C8.27609 6.89003 7.99987 7.30343 7.65165 7.65165C7.30343 7.99987 6.89003 8.27609 6.43506 8.46455C5.98009 8.653 5.49246 8.75 5 8.75C4.50754 8.75 4.01991 8.653 3.56494 8.46455C3.10997 8.27609 2.69657 7.99987 2.34835 7.65165C2.00013 7.30343 1.72391 6.89003 1.53545 6.43506C1.347 5.98009 1.25 5.49246 1.25 5C1.25 4.00544 1.64509 3.05161 2.34835 2.34835C3.05161 1.64509 4.00544 1.25 5 1.25C5.99456 1.25 6.94839 1.64509 7.65165 2.34835C8.35491 3.05161 8.75 4.00544 8.75 5ZM5 7.1875H5.00333V7.19083H5V7.1875Z" stroke="#98A2B6" stroke-linecap="round" stroke-linejoin="round"/>
</g>
<defs>
<clipPath id="clip0_1022_22095">
<rect width="10" height="10" fill="white"/>
</clipPath>
</defs>
</svg>
