<svg width="20" height="20" viewBox="0 0 20 20" fill="none" xmlns="http://www.w3.org/2000/svg">
<g clip-path="url(#clip0_2843_25599)">
<path d="M4.70538 4.70546C6.23506 3.17762 8.4029 2.29653 10.7866 2.54023C14.2307 2.88704 17.0649 5.68028 17.4496 9.12028C17.9658 13.6663 14.4466 17.5 10.0077 17.5C7.01398 17.5 4.44261 15.7472 3.24138 13.2258C2.94108 12.5978 3.39154 11.876 4.08599 11.876C4.43322 11.876 4.76168 12.0635 4.91184 12.3728C5.97229 14.6505 8.51552 16.094 11.2934 15.4754C13.3767 15.0161 15.0566 13.3195 15.4976 11.2386C16.286 7.60181 13.5175 4.3774 10.0077 4.3774C8.44983 4.3774 7.06091 5.02415 6.04737 6.04584L7.46444 7.46121C8.05567 8.05173 7.64275 9.06404 6.80752 9.06404H3.43846C2.92231 9.06404 2.5 8.64224 2.5 8.12671V4.7617C2.5 3.92748 3.51353 3.50568 4.10476 4.0962L4.70538 4.70546Z" fill="white"/>
</g>
<defs>
<clipPath id="clip0_2843_25599">
<rect width="20" height="20" fill="white" transform="matrix(-1 0 0 1 20 0)"/>
</clipPath>
</defs>
</svg>
