<svg width="40" height="40" viewBox="0 0 40 40" fill="none" xmlns="http://www.w3.org/2000/svg">
<path d="M17.44 14.5766C17.8184 14.2766 18.2684 14.0583 18.75 13.92V18.5783C18.2746 18.4481 17.8294 18.2256 17.44 17.9233C16.7834 17.4016 16.53 16.7883 16.53 16.25C16.53 15.7116 16.7834 15.0983 17.44 14.5766ZM21.25 26.1033V21.3966C21.8284 21.5383 22.3567 21.7766 22.785 22.0983C23.4967 22.6316 23.75 23.2416 23.75 23.75C23.75 24.2583 23.4967 24.8683 22.785 25.4016C22.3256 25.7358 21.8036 25.9756 21.25 26.1033Z" fill="#1A1A1A"/>
<path fill-rule="evenodd" clip-rule="evenodd" d="M20 3.75C11.025 3.75 3.75 11.025 3.75 20C3.75 28.975 11.025 36.25 20 36.25C28.975 36.25 36.25 28.975 36.25 20C36.25 11.025 28.975 3.75 20 3.75ZM21.25 10C21.25 9.66848 21.1183 9.35054 20.8839 9.11612C20.6495 8.8817 20.3315 8.75 20 8.75C19.6685 8.75 19.3505 8.8817 19.1161 9.11612C18.8817 9.35054 18.75 9.66848 18.75 10V11.36C17.7048 11.5359 16.7197 11.9689 15.8833 12.62C14.6967 13.5633 14.03 14.87 14.03 16.25C14.03 17.6317 14.6967 18.9367 15.885 19.88C16.7217 20.5467 17.7217 20.9583 18.75 21.14V26.1033C18.1964 25.975 17.6743 25.7364 17.215 25.4017L15.75 24.3017C15.6187 24.2032 15.4692 24.1315 15.3102 24.0908C15.1512 24.05 14.9857 24.041 14.8232 24.0642C14.495 24.1111 14.1989 24.2864 14 24.5517C13.8011 24.8169 13.7157 25.1503 13.7626 25.4784C13.8094 25.8066 13.9848 26.1028 14.25 26.3017L15.715 27.4017C16.6033 28.0683 17.6633 28.4767 18.75 28.6517V30C18.75 30.3315 18.8817 30.6495 19.1161 30.8839C19.3505 31.1183 19.6685 31.25 20 31.25C20.3315 31.25 20.6495 31.1183 20.8839 30.8839C21.1183 30.6495 21.25 30.3315 21.25 30V28.65C22.3476 28.485 23.389 28.0567 24.285 27.4017C25.5267 26.47 26.25 25.1617 26.25 23.75C26.25 22.3383 25.5267 21.03 24.285 20.0983C23.3892 19.4426 22.3478 19.0137 21.25 18.8483V13.9233C21.7333 14.06 22.1817 14.2783 22.56 14.5783L23.2517 15.1283C23.5114 15.3345 23.8423 15.4291 24.1718 15.3913C24.5012 15.3535 24.8021 15.1864 25.0083 14.9267C25.2145 14.667 25.3091 14.336 25.2713 14.0066C25.2335 13.6771 25.0664 13.3762 24.8067 13.17L24.115 12.62C23.279 11.9697 22.2945 11.5373 21.25 11.3617V10Z" fill="#1A1A1A"/>
</svg>
