<svg width="26" height="21" viewBox="0 0 26 21" fill="none" xmlns="http://www.w3.org/2000/svg">
<path d="M25.3395 2.52268C24.5161 2.87733 23.6506 3.12428 22.7641 3.25745C23.1786 3.18634 23.7883 2.43972 24.0311 2.13752C24.3998 1.68167 24.6809 1.16129 24.8599 0.602806C24.8599 0.561327 24.9014 0.502072 24.8599 0.472444C24.839 0.461034 24.8156 0.455055 24.7918 0.455055C24.768 0.455055 24.7446 0.461034 24.7237 0.472444C23.7612 0.994141 22.7368 1.39232 21.6748 1.65755C21.6378 1.66887 21.5984 1.66988 21.5608 1.66049C21.5233 1.65109 21.489 1.63164 21.4617 1.60422C21.379 1.5057 21.29 1.41267 21.1953 1.32572C20.7621 0.937272 20.2706 0.619343 19.7389 0.383561C19.0211 0.0888114 18.2457 -0.0388382 17.4714 0.0102523C16.7201 0.0577442 15.9866 0.259443 15.3164 0.602806C14.6565 0.96481 14.0766 1.4566 13.6114 2.04864C13.1221 2.65799 12.7688 3.36516 12.5754 4.12257C12.4158 4.84303 12.3977 5.58765 12.5221 6.31502C12.5221 6.43946 12.5221 6.45723 12.4155 6.43946C8.19435 5.81728 4.73099 4.31812 1.9011 1.10055C1.77678 0.958338 1.71165 0.958338 1.61101 1.10055C0.379592 2.97302 0.97754 5.93579 2.51681 7.39939C2.72402 7.59494 2.93715 7.78455 3.16212 7.96232C2.45637 7.91217 1.76786 7.72075 1.13739 7.39939C1.01898 7.32236 0.953859 7.36384 0.947938 7.50605C0.931156 7.70321 0.931156 7.90145 0.947938 8.09861C1.07147 9.04349 1.44351 9.93858 2.02602 10.6924C2.60853 11.4461 3.3806 12.0315 4.26329 12.3887C4.47847 12.4809 4.70268 12.5504 4.93228 12.5961C4.27893 12.7248 3.60885 12.7449 2.94899 12.6553C2.8069 12.6257 2.75362 12.7027 2.8069 12.839C3.67718 15.2092 5.56575 15.9322 6.95109 16.3351C7.14054 16.3647 7.32999 16.3647 7.54312 16.4121C7.54312 16.4121 7.54312 16.4121 7.5076 16.4477C7.0991 17.1943 5.44734 17.698 4.68955 17.9587C3.30638 18.456 1.83166 18.646 0.367752 18.5157C0.136861 18.4801 0.0835788 18.4861 0.0243761 18.5157C-0.0348266 18.5453 0.0243761 18.6105 0.089499 18.6698C0.385513 18.8653 0.681526 19.0371 0.98938 19.2031C1.90587 19.7034 2.87477 20.1008 3.87847 20.3882C9.07647 21.8221 14.9257 20.7674 18.8272 16.8862C21.8939 13.8404 22.9713 9.63925 22.9713 5.43212C22.9713 5.27213 23.1667 5.17732 23.2792 5.09436C24.0551 4.4893 24.7391 3.77474 25.3099 2.97302C25.4087 2.85351 25.4594 2.70135 25.4519 2.54638C25.4519 2.4575 25.4519 2.47527 25.3395 2.52268Z" fill="white"/>
</svg>
