<svg width="20" height="20" viewBox="0 0 20 20" fill="none" xmlns="http://www.w3.org/2000/svg">
<circle cx="10" cy="10" r="10" fill="#1A1A1A" fill-opacity="0.03"/>
<circle cx="10" cy="10" r="9.5" stroke="#1A1A1A" stroke-opacity="0.1"/>
<path d="M7.61382 13.1723L9.92321 10.8663C9.96659 10.823 10.0369 10.823 10.0802 10.8663L12.3896 13.1723C12.6067 13.3894 12.9552 13.3894 13.1722 13.1723C13.3893 12.9553 13.3893 12.6068 13.1722 12.3897L10.8662 10.0803C10.8229 10.0369 10.8229 9.96666 10.8662 9.92328L13.1723 7.61388C13.3893 7.39681 13.3893 7.04834 13.1723 6.83127C12.9552 6.6142 12.6067 6.61419 12.3896 6.83126L10.0802 9.13731C10.0369 9.18063 9.96659 9.18063 9.92321 9.13731L7.61382 6.83126C7.39675 6.61419 7.04827 6.61419 6.8312 6.83126C6.61413 7.04833 6.61413 7.39682 6.8312 7.61389L9.13725 9.92328C9.18056 9.96666 9.18056 10.0369 9.13725 10.0803L6.8312 12.3897C6.61413 12.6068 6.61413 12.9553 6.8312 13.1723C7.04827 13.3894 7.39675 13.3894 7.61382 13.1723Z" fill="#1A1A1A" fill-opacity="0.5"/>
</svg>
